<?xml version="1.0" encoding="utf-8"?>
<!-- Generator: Adobe Illustrator 24.2.1, SVG Export Plug-In . SVG Version: 6.00 Build 0)  -->
<svg version="1.1" id="Layer_1" xmlns="http://www.w3.org/2000/svg" xmlns:xlink="http://www.w3.org/1999/xlink" x="0px" y="0px"
	 viewBox="0 0 197 547.5" style="enable-background:new 0 0 197 547.5;" xml:space="preserve">
<style type="text/css">
	.st0{fill:none;stroke:#2E3191;stroke-miterlimit:10;}
	.st1{fill:none;stroke:#2E3191;stroke-width:1;stroke-miterlimit:10.0004;}
	.st2{fill:none;stroke:#C6C3E1;stroke-miterlimit:10;}
	.st3{fill:#FFFFFF;stroke:#231F20;stroke-miterlimit:10;}
</style>
<g id="Downstairs_Base">
	<polyline class="st0" points="145.7,39.1 144.3,41.1 142,39.1 140.1,41.1 138.2,39.1 136.2,41.1 133.9,39.1 132,41.1 130.4,39.1 
		128.6,41.1 126.6,39.1 	"/>
	<polyline class="st0" points="69.9,39.1 68.5,41.1 66.3,39.1 64.3,41.1 62.4,39.1 60.4,41.1 58.1,39.1 56.2,41.1 54.6,39.1 
		52.8,41.1 50.8,39.1 	"/>
	<rect x="139.4" y="343.7" class="st0" width="33.8" height="73.3"/>
	<rect x="139.4" y="406.5" class="st0" width="33.8" height="10.5"/>
	<rect x="139.4" y="417" class="st0" width="33.8" height="10.5"/>
	<rect x="139.4" y="427.5" class="st0" width="33.8" height="10.5"/>
	<rect x="139.4" y="396" class="st0" width="33.8" height="10.5"/>
	<rect x="139.4" y="385.6" class="st0" width="33.8" height="10.5"/>
	<rect x="139.4" y="375.1" class="st0" width="33.8" height="10.5"/>
	<rect x="139.4" y="364.6" class="st0" width="33.8" height="10.5"/>
	<rect x="139.4" y="354.1" class="st0" width="33.8" height="10.5"/>
	<rect x="139.4" y="343.7" class="st0" width="33.8" height="10.5"/>
	<g>
		<g>
			<path class="st0" d="M59.1,416.1c9.6-2.4,16.8-11.1,16.8-21.5"/>
		</g>
		<rect x="53.7" y="392.6" class="st0" width="22.1" height="2"/>
		<rect x="54.4" y="394.5" transform="matrix(0.9703 -0.242 0.242 0.9703 -96.4971 25.4606)" class="st1" width="2" height="22.1"/>
	</g>
	<polyline class="st0" points="69.9,40.5 69.9,41.8 72.4,41.8 72.4,49.5 75.9,49.5 75.9,27.6 120.2,27.6 120.2,49.5 123.7,49.5 
		123.7,41.8 126.6,41.8 126.6,40.5 	"/>
	<polyline class="st0" points="53.7,392.6 51.2,392.6 51.2,369.6 28.5,369.6 28.5,204.9 46.1,204.9 46.1,203.6 32.8,196.4 
		32.8,180.9 46.1,173.7 46.1,172.5 28.5,172.5 28.5,41.8 50.8,41.8 50.8,40.5 	"/>
	<polyline class="st0" points="145.7,40.5 145.7,41.8 167.6,41.8 167.6,107.3 145.6,107.3 145.6,110.8 167.6,110.8 167.6,305.5 
		145.1,305.5 145.1,309.3 	"/>
	<path class="st0" d="M145.4,309c8.5,0.3,14.6-1.5,21.3,1.1c6.9,2.7,7.6,6.5,9.4,10.1"/>
	<polyline class="st0" points="175.7,320.1 175.7,366.8 175.7,441.7 	"/>
	<polyline class="st0" points="76.7,392.6 135.8,392.6 135.8,343.7 139.4,343.7 139.4,436.9 	"/>
	<path class="st0" d="M145.4,305.5c-9.6,0-19.4,10.9-19.4,21.6s5.6,16.5,13.3,16.5"/>
	<rect x="146.2" y="110.8" class="st2" width="21.3" height="194.7"/>
</g>
<g id="template-0">
	<line class="st3" x1="135.8" y1="351.9" x2="135.8" y2="392.6"/>
	<line class="st3" x1="121.2" y1="392.6" x2="80.8" y2="392.6"/>
	<line class="st3" x1="51.2" y1="392.6" x2="51.2" y2="369.6"/>
	<line class="st3" x1="28.5" y1="369.6" x2="28.5" y2="204.9"/>
	<line class="st3" x1="28.5" y1="172.5" x2="28.5" y2="41.8"/>
	<line class="st3" x1="77.1" y1="27.6" x2="120.3" y2="27.6"/>
	<line class="st3" x1="167.6" y1="41.8" x2="167.6" y2="107.3"/>
	<line class="st3" x1="167.6" y1="110.8" x2="167.6" y2="305.5"/>
</g>
</svg>
