<?xml version="1.0" encoding="utf-8"?>
<!-- Generator: Adobe Illustrator 24.2.1, SVG Export Plug-In . SVG Version: 6.00 Build 0)  -->
<svg version="1.1" id="Layer_1" xmlns="http://www.w3.org/2000/svg" xmlns:xlink="http://www.w3.org/1999/xlink" x="0px" y="0px"
	 viewBox="0 0 218.4 630.7" style="enable-background:new 0 0 218.4 630.7;" xml:space="preserve">
<style type="text/css">
	.st0{fill:none;stroke:#2E3192;stroke-miterlimit:10;}
	.st1{fill:none;stroke:#C7C4E2;stroke-miterlimit:10;}
	.st2{fill:none;stroke:#2E3192;stroke-width:1;stroke-miterlimit:9.9996;}
	.st3{fill:none;stroke:#C7C4E2;stroke-width:1;stroke-miterlimit:9.9999;}
	.st4{fill:none;stroke:#C7C4E2;stroke-width:1;stroke-miterlimit:10.0001;}
	.st5{fill:none;stroke:#2E3192;stroke-miterlimit:10;stroke-dasharray:1,1;}
	.st6{fill:none;stroke:#C7C4E2;stroke-width:1;stroke-miterlimit:10;}
	.st7{fill:none;stroke:#D3D1E9;stroke-width:1;stroke-miterlimit:10;}
	.st8{fill:none;stroke:#D3D1E9;stroke-miterlimit:10;}
	.st9{fill:#FFFFFF;stroke:#C7C4E2;stroke-width:1;stroke-miterlimit:10.0005;}
	.st10{fill:#FFFFFF;stroke:#C7C4E2;stroke-width:1;stroke-miterlimit:9.9998;}
	.st11{fill:#200000;}
	.st12{font-family:'MyriadPro-Bold';}
	.st13{font-size:12px;}
	.st14{fill:#D7DF23;}
	.st15{fill:#FFF200;}
	.st16{fill:#FFCB05;}
	.st17{fill:#FAA61A;}
	.st18{fill:#F58220;}
	.st19{fill:#F15A22;}
	.st20{fill:#ED1C24;}
	.st21{fill:none;stroke:#2E3192;stroke-linecap:square;stroke-miterlimit:10;}
	.st22{fill:none;stroke:#2E3192;stroke-linecap:square;stroke-miterlimit:10;stroke-dasharray:2.3759,2.3759;}
	.st23{fill:#2E3192;}
	.st24{font-family:'ArialMT';}
	.st25{font-size:10px;}
	.st26{fill:none;stroke:#FFFFFF;stroke-width:2;stroke-miterlimit:10;}
	.st27{font-size:9.9997px;}
	.st28{font-size:12.0005px;}
	.st29{fill:#EB2027;}
	.st30{fill:#F05A25;}
	.st31{fill:#F48120;}
	.st32{fill:#F9A61B;}
	.st33{fill:#FFCB04;}
	.st34{fill:#FBED21;}
	.st35{fill:#D6DE27;}
	.st36{fill:#A4CD39;}
	.st37{fill:#74BF44;}
	.st38{fill:#0DB04B;}
	.st39{fill:#00A54F;}
	.st40{fill:#00A9AC;}
	.st41{fill:#29AAE1;}
	.st42{fill:#200000;enable-background:new    ;}
</style>
<g id="Upstairs_Base">
	<polyline class="st0" points="141.3,368.8 138.9,367.2 141.3,364.7 138.9,362.5 141.3,360.4 138.9,358.1 141.3,355.6 138.9,353.4 
		141.3,351.6 138.9,349.6 141.3,347.4 	"/>
	<polyline class="st0" points="150,105 151.9,107.5 148.4,108.8 150,112 146.7,112.9 148.3,116 144.8,117.3 146.5,120.4 143.2,121 
		145,123.9 141.6,124.9 	"/>
	<line class="st0" x1="150" y1="105" x2="152.2" y2="99.7"/>
	<polyline class="st0" points="183.8,149 139.4,130.2 141.6,124.9 	"/>
	<g>
		<polyline class="st0" points="94.4,52.8 96.1,55.2 92.8,56.5 94.1,59.5 91,60.4 92.3,63.4 89,64.7 90.4,67.7 87.4,68.3 88.8,71.1 
			85.7,72.1 		"/>
		<line class="st0" x1="83.5" y1="76.9" x2="85.7" y2="72.1"/>
	</g>
	<line class="st0" x1="34.7" y1="265.2" x2="34.7" y2="365.3"/>
	<polyline class="st0" points="34.9,233.5 52.5,232.2 52.5,233.6 39.3,241.1 39.2,241.2 39.2,256.3 52.3,263.8 52.3,265.2 
		34.7,265.2 	"/>
	<polyline class="st0" points="34.9,233.5 34.9,132.4 43.2,114 63.2,123 64.7,119.8 50.1,113.2 68,73.5 83,80.2 84.4,76.9 	"/>
	<polyline class="st0" points="35.2,518 35.2,481.2 53.9,481.2 53.9,477.7 36.2,477.7 36.2,389.8 36.2,389.8 60,380.5 58.7,377.1 
		41.9,383.7 34.7,365.3 	"/>
	<rect x="35.2" y="518" class="st0" width="1.4" height="25.9"/>
	<polyline class="st0" points="38,555.8 35.2,555.8 35.2,543.9 	"/>
	<line class="st0" x1="141.3" y1="373.5" x2="141.3" y2="368.8"/>
	<polyline class="st0" points="141.4,377.2 138,378.5 136.7,375.2 141,373.5 	"/>
	<line class="st0" x1="66.8" y1="555.9" x2="66.8" y2="558.4"/>
	<rect x="145.7" y="413.9" class="st0" width="38" height="62.9"/>
	<rect x="145.7" y="466.3" class="st0" width="33.8" height="10.5"/>
	<rect x="145.7" y="455.8" class="st0" width="33.8" height="10.5"/>
	<rect x="145.7" y="445.3" class="st0" width="33.8" height="10.5"/>
	<rect x="145.7" y="434.8" class="st0" width="33.8" height="10.5"/>
	<rect x="145.7" y="424.4" class="st0" width="33.8" height="10.5"/>
	<rect x="145.7" y="413.9" class="st0" width="33.8" height="10.5"/>
	<rect x="109.6" y="27" class="st1" width="10.8" height="6.1"/>
	<g>
		<rect x="26" y="540.2" transform="matrix(0.255 -0.9669 0.9669 0.255 -493.5443 442.51)" class="st2" width="28.8" height="2.6"/>
		<rect x="38" y="555.8" class="st0" width="28.8" height="2.6"/>
		<path class="st0" d="M45,527.8c12.5,3.1,21.8,14.4,21.8,28"/>
	</g>
	<line class="st0" x1="96.1" y1="49.1" x2="94.4" y2="52.8"/>
	<g>
		<g>
			<path class="st1" d="M39.7,17.1c-1.2,7.4,2.7,15,9.9,18.1"/>
		</g>
		<rect x="45.2" y="27" transform="matrix(0.3954 -0.9185 0.9185 0.3954 6.9255 66.0248)" class="st3" width="16.8" height="1.5"/>
		<rect x="47.3" y="9.2" transform="matrix(0.1614 -0.9869 0.9869 0.1614 22.874 62.2188)" class="st4" width="1.5" height="16.8"/>
	</g>
	<polyline class="st0" points="183.8,149 183.8,329.4 141.3,329.4 141.3,347.4 	"/>
	<line class="st5" x1="182.1" y1="149" x2="182.7" y2="99.7"/>
	<polyline class="st5" points="141,373.5 162.4,364.9 183.8,373.5 183.8,329.4 	"/>
	<path class="st5" d="M67.9,67.6"/>
	<polyline class="st5" points="60.9,79.1 0,50.8 23.2,0 99.6,35.5 	"/>
	<line class="st5" x1="59.5" y1="16.9" x2="35.1" y2="67.1"/>
	<g>
		<rect x="13" y="11" transform="matrix(0.4254 -0.905 0.905 0.4254 -2.0973 30.7189)" class="st6" width="20.3" height="12.1"/>
		<path class="st1" d="M27.1,13.3c1.6,0.7,1.9,3.4,0.7,5.9c-1.2,2.5-3.4,3.9-5,3.2s-1.9-3.4-0.7-5.9C23.3,14,25.6,12.6,27.1,13.3z"
			/>
		<rect x="19" y="12.9" transform="matrix(0.4254 -0.905 0.905 0.4254 -2.5234 26.8255)" class="st6" width="1.8" height="5"/>
		<path class="st1" d="M22.5,9.8c0.6,0.3,0.9,1,0.6,1.6s-1,0.9-1.6,0.6s-0.9-1-0.6-1.6C21.2,9.8,21.9,9.5,22.5,9.8z"/>
		<path class="st1" d="M18.3,18.9c0.6,0.3,0.9,1,0.6,1.6c-0.3,0.6-1,0.9-1.6,0.6c-0.6-0.3-0.9-1-0.6-1.6
			C16.9,18.8,17.7,18.6,18.3,18.9z"/>
	</g>
	<rect x="1.3" y="39" transform="matrix(0.4254 -0.905 0.905 0.4254 -33.1101 30.4351)" class="st6" width="12.2" height="4.5"/>
	<path class="st1" d="M17.8,39.4c3.1,1.4,4.4,5.1,2.9,8.1c-1.4,3.1-5.1,4.4-8.1,2.9c-3.1-1.4-4.4-5.1-2.9-8.1
		C11.1,39.2,14.7,37.9,17.8,39.4z"/>
	<path class="st1" d="M16.5,42.1c1.6,0.7,2.2,2.6,1.5,4.2c-0.7,1.6-2.6,2.2-4.2,1.5s-2.2-2.6-1.5-4.2C13.1,42,15,41.3,16.5,42.1z"/>
	<circle class="st1" cx="181.2" cy="176.5" r="1.6"/>
	<polyline class="st0" points="141.4,377.2 141.4,485.4 145.7,485.4 145.7,476.7 179.5,476.7 	"/>
	<polyline class="st0" points="179.5,536.1 174,543.2 182.2,549.7 165.7,570.6 157.5,564.2 149.6,574.2 153.4,577.2 159.4,569.7 
		186.1,590.6 180,598.4 183.6,601.2 160.5,630.7 69.6,559.4 	"/>
	<polyline class="st0" points="152.4,570.7 107,535 84.8,535 67,555.7 	"/>
	<polyline class="st0" points="152.2,99.7 182.7,99.7 182.7,27 120.4,27 109.6,27 99.1,27 99.1,49.1 96.1,49.1 	"/>
	<polyline class="st0" points="179.5,476.7 183.7,476.7 183.7,484.8 179.5,484.8 179.5,536.1 	"/>
	
		<rect x="114.9" y="525.1" transform="matrix(0.6181 -0.7861 0.7861 0.6181 -368.7982 305.6481)" class="st7" width="30.6" height="14.5"/>
	<g>
		<path class="st8" d="M124.6,517.4c4.4,3.5,1.2,6.8-2.3,11.2s-5.9,8.4-10.3,4.9c-4.4-3.5-5.2-9.9-1.7-14.3
			C113.7,514.7,120.1,513.9,124.6,517.4z"/>
		<path class="st8" d="M123.7,521.9c2.7,2.1,0.7,4.1-1.4,6.8c-2.1,2.7-3.6,5.1-6.2,2.9c-2.7-2.1-3.1-6-1-8.7
			C117.1,520.2,121,519.7,123.7,521.9z"/>
	</g>
	<g>
		<path class="st8" d="M146.1,537.9c3,2.4,3.6,6.8,1.2,9.8c-2.4,3-6.8,3.6-9.8,1.2c-3-2.4-3.6-6.8-1.2-9.8
			C138.6,536.1,143,535.5,146.1,537.9z"/>
		<path class="st8" d="M153.3,542.7c0.7,0.6,1,1.4-3.5,7.1c-4.5,5.7-5.4,5.6-6.1,5.1c-0.7-0.6-1-1.4,3.5-7.1
			C151.7,542,152.6,542.1,153.3,542.7z"/>
		
			<rect x="146.6" y="532.1" transform="matrix(0.6183 -0.786 0.786 0.6183 -365.9895 321.6769)" class="st9" width="3.2" height="11"/>
		
			<rect x="136" y="545.6" transform="matrix(0.6182 -0.786 0.786 0.6182 -380.6309 318.539)" class="st10" width="3.2" height="11"/>
	</g>
	<g id="featured-show-jl_1_">
		<text transform="matrix(0 -1 1 0 46.4052 226.6182)" class="st11 st12 st13">FEATURED SHOW</text>
	</g>
	<g id="featured-show-jl">
		<text transform="matrix(0 -1 1 0 46.4052 364.8369)" class="st11 st12 st13">FEATURED SHOW</text>
	</g>
	<g id="jewelry-jl">
		<text transform="matrix(0 -1 1 0 47.4059 456.8008)" class="st11 st12 st13">JEWELRY</text>
	</g>
</g>
<g id="show_if_slots_7">
	<g id="Slots">
		<g id="_x30_7s-s-7">
			<rect x="150.4" y="360.1" class="st14" width="22.4" height="4.1"/>
			<rect x="31.2" y="481.2" class="st14" width="3.8" height="47.8"/>
			
				<rect x="162.8" y="559.2" transform="matrix(0.6173 -0.7867 0.7867 0.6173 -374.1624 352.9585)" class="st14" width="25.9" height="3.8"/>
		</g>
		<g id="_x30_7s-s-6">
			<rect x="141.3" y="434.2" class="st15" width="3.8" height="49.2"/>
			<rect x="179.5" y="489.5" class="st15" width="3.9" height="40.3"/>
		</g>
		<g id="_x30_7s-s-5">
			<rect x="141.3" y="329.4" class="st16" width="3.8" height="15.8"/>
			<rect x="141.3" y="381.8" class="st16" width="3.8" height="52.4"/>
			<rect x="183.8" y="303.6" class="st16" width="3.9" height="25.7"/>
		</g>
		<rect id="_x30_7s-s-4" x="183.8" y="209.7" class="st17" width="3.9" height="94"/>
		<g id="_x30_7s-s-3">
			<g>
				<rect x="183.8" y="149" class="st18" width="3.9" height="60.7"/>
				
					<rect x="158.6" y="139.5" transform="matrix(0.9215 0.3883 -0.3883 0.9215 68.3253 -55.2047)" class="st18" width="24.3" height="3.8"/>
			</g>
		</g>
		<g id="_x30_7s-s-2">
			<g>
				<rect x="182.7" y="27" class="st19" width="3.9" height="71.3"/>
				
					<rect x="142.1" y="131.3" transform="matrix(0.9215 0.3883 -0.3883 0.9215 63.584 -48.2481)" class="st19" width="18.2" height="3.8"/>
			</g>
		</g>
		<g id="_x30_7s-s-1">
			
				<rect x="35.6" y="90.8" transform="matrix(0.411 -0.9116 0.9116 0.411 -50.82 106.7735)" class="st20" width="43.2" height="3.9"/>
			<rect x="125.7" y="23.2" class="st20" width="50.8" height="3.8"/>
		</g>
	</g>
	<g id="Edges">
		<g id="_x30_7s-e-5not6">
			<g>
				<line class="st21" x1="141.4" y1="434.2" x2="139.9" y2="434.2"/>
				<line class="st22" x1="137.5" y1="434.2" x2="129.2" y2="434.2"/>
				<line class="st21" x1="128" y1="434.2" x2="126.5" y2="434.2"/>
			</g>
		</g>
		<g id="_x30_7s-e-4not5">
			<g>
				<line class="st21" x1="183.8" y1="303.6" x2="182.3" y2="303.6"/>
				<line class="st22" x1="179.9" y1="303.6" x2="171.6" y2="303.6"/>
				<line class="st21" x1="170.4" y1="303.6" x2="168.9" y2="303.6"/>
			</g>
		</g>
		<g id="_x30_7s-e-3not4">
			<g>
				<line class="st21" x1="183.8" y1="209.7" x2="182.3" y2="209.7"/>
				<line class="st22" x1="179.9" y1="209.7" x2="171.6" y2="209.7"/>
				<line class="st21" x1="170.4" y1="209.7" x2="168.9" y2="209.7"/>
			</g>
		</g>
		<g id="_x30_7s-e-2not3">
			<g>
				<line class="st21" x1="158.8" y1="138.4" x2="158.2" y2="139.8"/>
				<line class="st22" x1="157.3" y1="142" x2="154" y2="149.7"/>
				<line class="st21" x1="153.6" y1="150.8" x2="153" y2="152.2"/>
			</g>
		</g>
	</g>
	<g id="Measurements">
		<g id="_x30_7s-m-5not6">
			<text transform="matrix(0 1 -1 0 167.3652 451.5637)" class="st23 st24 st25">68”</text>
			<text transform="matrix(0 1 -1 0 167.3652 451.5637)" class="st26 st24 st25">68”</text>
			<text transform="matrix(0 1 -1 0 167.3652 451.5637)" class="st23 st24 st25">68”</text>
			<polyline class="st0" points="154.1,483.4 163.4,458.8 154.1,434.2 			"/>
		</g>
		<g id="_x30_7s-m-4not5">
			<text transform="matrix(-8.979319e-11 1 -1 -8.979319e-11 209.8027 309.4319)" class="st23 st24 st25">36”</text>
			<polyline class="st0" points="196.5,329.7 205.9,316.7 196.5,303.6 			"/>
		</g>
		<g id="_x30_7s-m-3not4">
			<text transform="matrix(-8.979319e-11 1 -1 -8.979319e-11 209.8027 172.1091)" class="st23 st24 st25">84”</text>
			<polyline class="st0" points="196.5,209.7 205.9,179.3 196.5,149 			"/>
		</g>
		<g id="_x30_7s-m-2not3">
			<text transform="matrix(0.9212 0.389 -0.389 0.9212 153.5276 111.6642)" class="st23 st24 st27">67”</text>
			<polyline class="st0" points="163.8,129.3 159.1,117.2 147,122.2 			"/>
		</g>
	</g>
	<g id="Labels">
		<g id="_x30_7s-l-7zzz">
			<text transform="matrix(8.979319e-11 -1 1 8.979319e-11 47.0526 504.812)" class="st14 st12 st13">|</text>
		</g>
		<g id="_x30_7s-l-7zz">
			<text transform="matrix(1 0 0 1 161.9476 376.0063)" class="st14 st12 st13">|</text>
		</g>
		<g id="_x30_7s-l-7">
			<text transform="matrix(-0.6223 0.7828 -0.7828 -0.6223 167.0467 552.9548)" class="st14 st12 st13">|</text>
		</g>
		<g id="_x30_7s-l-6not5">
			<text transform="matrix(0 1 -1 0 128.6484 458.1434)" class="st15 st12 st13">|</text>
		</g>
		<g id="_x30_7s-l-5">
			<text transform="matrix(0 1 -1 0 168.8164 508.8047)" class="st15 st12 st13">|</text>
		</g>
		<g id="_x30_7s-l-5and6">
			<text transform="matrix(0 1 -1 0 128.6484 432.1982)" class="st15 st12 st13">|</text>
		</g>
		<g id="_x30_7s-l-5not6_1_">
			<text transform="matrix(0 1 -1 0 127.8496 404.3509)" class="st16 st12 st13">|</text>
		</g>
		<g id="_x30_7s-l-5z">
			<text transform="matrix(0 1 -1 0 128.6484 336.6378)" class="st16 st12 st13">|</text>
		</g>
		<g id="_x30_7s-l-5-jr">
			<text transform="matrix(1 0 0 1 182.1089 323.5477)" class="st16 st12 st13">|</text>
		</g>
		<g id="_x30_7s-l-4and5">
			<text transform="matrix(0 1 -1 0 172.4844 272.2133)" class="st17 st12 st13">|</text>
		</g>
		<g id="_x30_7s-l-4not5">
			<text transform="matrix(0 1 -1 0 172.4844 251.5733)" class="st17 st12 st13">|</text>
		</g>
		<g id="_x30_7s-l-3">
			<text transform="matrix(0 1 -1 0 172.4844 177.6521)" class="st18 st12 st13">|</text>
		</g>
		<g id="_x30_7s-l-2and3">
			<text transform="matrix(0.9183 0.396 -0.396 0.9183 155.5052 148.333)" class="st19 st12 st28">|</text>
		</g>
		<g id="_x30_7s-l-2not3-jr">
			<text transform="matrix(0.9183 0.396 -0.396 0.9183 152.9827 147.5843)" class="st19 st12 st28">|</text>
		</g>
		<g id="_x30_7s-l-2">
			<text transform="matrix(0 1 -1 0 171.4824 65.4022)" class="st19 st12 st13">|</text>
		</g>
		<g id="_x30_7s-l-1z">
			<text transform="matrix(1 0 0 1 147.3024 37.7803)" class="st20 st12 st13">|</text>
		</g>
		<g id="_x30_7s-l-1">
			<text transform="matrix(0.444 -0.896 0.896 0.444 68.9994 98.6992)" class="st20 st12 st13">|</text>
		</g>
	</g>
</g>
<g id="Pallet">
	<rect x="-37" y="314" class="st29" width="23" height="15.4"/>
	<rect x="-37" y="329.2" class="st30" width="23" height="15.4"/>
	<rect x="-37" y="344.7" class="st31" width="23" height="15.4"/>
	<rect x="-37" y="360.1" class="st32" width="23" height="15.4"/>
	<rect x="-37" y="375.5" class="st33" width="23" height="15.4"/>
	<rect x="-37" y="390.8" class="st34" width="23" height="15.4"/>
	<rect x="-37" y="406.2" class="st35" width="23" height="15.4"/>
	<rect x="-37" y="421.6" class="st36" width="23" height="15.4"/>
	<rect x="-37" y="437" class="st37" width="23" height="15.4"/>
	<rect x="-37" y="452.3" class="st38" width="23" height="15.4"/>
	<rect x="-37" y="467.7" class="st39" width="23" height="15.4"/>
	<rect x="-37" y="483.1" class="st40" width="23" height="15.4"/>
	<rect x="-37" y="498.5" class="st41" width="23" height="15.4"/>
	<rect x="-37" y="513.9" class="st42" width="23" height="15.4"/>
	<rect x="-37" y="529.2" class="st0" width="23" height="15.4"/>
	<rect x="-37" y="544.7" class="st8" width="23" height="15.4"/>
</g>
</svg>
