<?xml version="1.0" encoding="utf-8"?>
<!-- Generator: Adobe Illustrator 24.2.1, SVG Export Plug-In . SVG Version: 6.00 Build 0)  -->
<svg version="1.1" id="Layer_1" xmlns="http://www.w3.org/2000/svg" xmlns:xlink="http://www.w3.org/1999/xlink" x="0px" y="0px"
	 viewBox="0 0 218.4 630.7" style="enable-background:new 0 0 218.4 630.7;" xml:space="preserve">
<style type="text/css">
	.st0{fill:none;stroke:#2E3192;stroke-miterlimit:10;}
	.st1{fill:none;stroke:#C7C4E2;stroke-miterlimit:10;}
	.st2{fill:none;stroke:#2E3192;stroke-width:1;stroke-miterlimit:9.9944;}
	.st3{fill:none;stroke:#2E3192;stroke-miterlimit:10;stroke-dasharray:1,1;}
	.st4{fill:none;stroke:#D3D1E9;stroke-width:1;stroke-miterlimit:10;}
	.st5{fill:none;stroke:#D3D1E9;stroke-miterlimit:10;}
	.st6{fill:#FFFFFF;stroke:#C7C4E2;stroke-width:1;stroke-miterlimit:10.007;}
	.st7{fill:#FFFFFF;stroke:#C7C4E2;stroke-width:1;stroke-miterlimit:9.9972;}
	.st8{fill:#200000;}
	.st9{font-family:'MyriadPro-Bold';}
	.st10{font-size:12px;}
	.st11{font-size:11.997px;}
	.st12{fill:none;stroke:#231F20;stroke-miterlimit:10;}
</style>
<g id="Upstairs_Base">
	<polyline class="st0" points="141.3,368.8 138.9,367.2 141.3,364.7 138.9,362.5 141.3,360.4 138.9,358.1 141.3,355.6 138.9,353.4 
		141.3,351.6 138.9,349.6 141.3,347.4 	"/>
	<polyline class="st0" points="150,105 151.9,107.5 148.4,108.8 150,112 146.7,112.9 148.3,116 144.8,117.3 146.5,120.4 143.2,121 
		145,123.9 141.6,124.9 	"/>
	<line class="st0" x1="150" y1="105" x2="152.2" y2="99.7"/>
	<polyline class="st0" points="183.8,149 139.4,130.2 141.6,124.9 	"/>
	<g>
		<polyline class="st0" points="94.4,52.8 96.1,55.2 92.8,56.5 94.1,59.5 91,60.4 92.3,63.4 89,64.7 90.4,67.7 87.4,68.3 88.8,71.1 
			85.7,72.1 		"/>
		<line class="st0" x1="83.5" y1="76.9" x2="85.7" y2="72.1"/>
	</g>
	<line class="st0" x1="34.7" y1="265.2" x2="34.7" y2="365.3"/>
	<polyline class="st0" points="34.9,233.5 52.5,232.2 52.5,233.6 39.3,241.1 39.2,241.2 39.2,256.3 52.3,263.8 52.3,265.2 
		34.7,265.2 	"/>
	<polyline class="st0" points="34.9,233.5 34.9,132.4 43.2,114 63.2,123 64.7,119.8 50.1,113.2 68,73.5 83,80.2 84.4,76.9 	"/>
	<polyline class="st0" points="35.2,518 35.2,481.2 53.9,481.2 53.9,477.7 36.2,477.7 36.2,389.8 36.2,389.8 60,380.5 58.7,377.1 
		41.9,383.7 34.7,365.3 	"/>
	<rect x="35.2" y="518" class="st0" width="1.4" height="25.9"/>
	<polyline class="st0" points="38,555.8 35.2,555.8 35.2,543.9 	"/>
	<line class="st0" x1="141.3" y1="373.5" x2="141.3" y2="368.8"/>
	<polyline class="st0" points="141.4,377.2 138,378.5 136.7,375.2 141,373.5 	"/>
	<line class="st0" x1="66.8" y1="555.9" x2="66.8" y2="558.4"/>
	<rect x="145.7" y="413.9" class="st0" width="38" height="62.9"/>
	<rect x="145.7" y="466.3" class="st0" width="33.8" height="10.5"/>
	<rect x="145.7" y="455.8" class="st0" width="33.8" height="10.5"/>
	<rect x="145.7" y="445.3" class="st0" width="33.8" height="10.5"/>
	<rect x="145.7" y="434.8" class="st0" width="33.8" height="10.5"/>
	<rect x="145.7" y="424.4" class="st0" width="33.8" height="10.5"/>
	<rect x="145.7" y="413.9" class="st0" width="33.8" height="10.5"/>
	<rect x="109.6" y="27" class="st1" width="10.8" height="6.1"/>
	<g>
		
			<rect x="25.7" y="540.1" transform="matrix(0.255 -0.9669 0.9669 0.255 -493.6483 442.0677)" class="st2" width="28.8" height="2.6"/>
		<rect x="38" y="555.8" class="st0" width="28.8" height="2.6"/>
		<path class="st0" d="M45,527.8c12.5,3.1,21.8,14.4,21.8,28"/>
	</g>
	<line class="st0" x1="96.1" y1="49.1" x2="94.4" y2="52.8"/>
	<polyline class="st0" points="183.8,149 183.8,329.4 141.3,329.4 141.3,347.4 	"/>
	<line class="st3" x1="182.1" y1="149" x2="182.7" y2="99.7"/>
	<polyline class="st3" points="141,373.5 162.4,364.9 183.8,373.5 183.8,329.4 	"/>
	<path class="st3" d="M67.9,67.6"/>
	<circle class="st1" cx="181.2" cy="176.5" r="1.6"/>
	<polyline class="st0" points="141.4,377.2 141.4,485.4 145.7,485.4 145.7,476.7 179.5,476.7 	"/>
	<polyline class="st0" points="179.5,536.1 174,543.2 182.2,549.7 165.7,570.6 157.5,564.2 149.6,574.2 153.4,577.2 159.4,569.7 
		186.1,590.6 180,598.4 183.6,601.2 160.5,630.7 69.6,559.4 	"/>
	<polyline class="st0" points="152.4,570.7 107,535 84.8,535 67,555.7 	"/>
	<polyline class="st0" points="152.2,99.7 182.7,99.7 182.7,27 120.4,27 109.6,27 99.1,27 99.1,49.1 96.1,49.1 	"/>
	<polyline class="st0" points="179.5,476.7 183.7,476.7 183.7,484.8 179.5,484.8 179.5,536.1 	"/>
	
		<rect x="114.9" y="525.1" transform="matrix(0.6181 -0.7861 0.7861 0.6181 -368.7529 305.6487)" class="st4" width="30.6" height="14.5"/>
	<g>
		<path class="st5" d="M124.6,517.4c4.4,3.5,1.2,6.8-2.3,11.2s-5.9,8.4-10.3,4.9s-5.2-9.9-1.7-14.3
			C113.7,514.7,120.1,513.9,124.6,517.4z"/>
		<path class="st5" d="M123.7,521.9c2.7,2.1,0.7,4.1-1.4,6.8s-3.6,5.1-6.2,2.9c-2.7-2.1-3.1-6-1-8.7
			C117.1,520.2,121,519.7,123.7,521.9z"/>
	</g>
	<g>
		<path class="st5" d="M146.1,537.9c3,2.4,3.6,6.8,1.2,9.8c-2.4,3-6.8,3.6-9.8,1.2c-3-2.4-3.6-6.8-1.2-9.8
			C138.6,536.1,143,535.5,146.1,537.9z"/>
		<path class="st5" d="M153.3,542.7c0.7,0.6,1,1.4-3.5,7.1c-4.5,5.7-5.4,5.6-6.1,5.1c-0.7-0.6-1-1.4,3.5-7.1
			C151.7,542,152.6,542.1,153.3,542.7z"/>
		
			<rect x="146.6" y="532.1" transform="matrix(0.6183 -0.786 0.786 0.6183 -365.9727 321.7122)" class="st6" width="3.2" height="11"/>
		
			<rect x="136" y="545.6" transform="matrix(0.6182 -0.786 0.786 0.6182 -380.6287 318.5556)" class="st7" width="3.2" height="11"/>
	</g>
	<g id="featured-show-jl">
		<text transform="matrix(0 -1 1 0 46.4052 183)" class="st8 st9 st10">FEATURED SHOW</text>
	</g>
	<g id="featured-show-jl_1_">
		<text transform="matrix(0 -1 1 0 46.4052 321.2188)" class="st8 st9 st10">FEATURED SHOW</text>
	</g>
	<g id="featured-show-jl_2_">
		<text transform="matrix(0.78 0.6257 -0.6257 0.78 115.749 592.621)" class="st8 st9 st11">FEATURED SHOW</text>
	</g>
	<g id="jewelry-jl">
		<text transform="matrix(0 -1 1 0 47.4059 429.6504)" class="st8 st9 st10">JEWELRY</text>
	</g>
</g>
<g id="template-00">
	<line class="st12" x1="50.1" y1="113.2" x2="68.1" y2="73.5"/>
	<line class="st12" x1="122.6" y1="26.6" x2="182.7" y2="26.6"/>
	<line class="st12" x1="182.7" y1="27" x2="182.7" y2="98.3"/>
	<line class="st12" x1="142" y1="131.4" x2="181.2" y2="147.9"/>
	<line class="st12" x1="183.8" y1="149" x2="183.8" y2="174.9"/>
	<line class="st12" x1="183.8" y1="178.1" x2="183.8" y2="329.4"/>
	<line class="st12" x1="141.4" y1="329.4" x2="141.4" y2="345.2"/>
	<line class="st12" x1="141.4" y1="381.8" x2="141.4" y2="483.4"/>
	<line id="ccw" class="st12" x1="35.1" y1="481.2" x2="35.1" y2="525.9"/>
	<line id="ccw_2_" class="st12" x1="165.9" y1="570.3" x2="181.9" y2="549.9"/>
	<line id="ccw_1_" class="st12" x1="179.5" y1="532" x2="179.5" y2="489.5"/>
	<line class="st12" x1="146.4" y1="359.2" x2="178.6" y2="359.2"/>
</g>
<g id="template-01">
	<line class="st12" x1="122.5" y1="26.6" x2="182.6" y2="26.6"/>
	<line class="st12" x1="182.6" y1="27" x2="182.6" y2="98.3"/>
	<line class="st12" x1="50" y1="113.2" x2="68" y2="73.5"/>
	<line class="st12" x1="141.9" y1="131.4" x2="181.1" y2="147.9"/>
	<line class="st12" x1="183.7" y1="149" x2="183.7" y2="174.9"/>
	<line class="st12" x1="183.7" y1="178.1" x2="183.7" y2="329.4"/>
	<line class="st12" x1="141.3" y1="329.4" x2="141.3" y2="345.2"/>
	<line class="st12" x1="141.3" y1="381.8" x2="141.3" y2="483.4"/>
	<line id="ccw_5_" class="st12" x1="35.2" y1="481.2" x2="35.2" y2="525.9"/>
	<line id="ccw_4_" class="st12" x1="166" y1="570.3" x2="182" y2="549.9"/>
	<line id="ccw_3_" class="st12" x1="179.6" y1="532" x2="179.6" y2="489.5"/>
	<line class="st12" x1="146.3" y1="359.2" x2="178.5" y2="359.2"/>
</g>
</svg>
